Simulation
nRows=28
nColumns=15
endheader
time  TH_x TH_y TH_z SC_y  SC_z  SC_x  AC_y  AC_z  AC_x  GH_y  GH_z  GH_yy  EL_x  PS_y
0.0  0.000000  0.000000  0.000000  -29.527437073721075  -1.808123940100059  1.9247382770407764  56.51907316069563  4.053965771734685  -8.79454362126908  -157.80246547591184  5.452671558998771  -155.93164990285308  25.59754467855843  0.000000
0.034  0.000000  0.000000  0.000000  -29.42255202007504  -1.831987801168089  2.087226009726296  56.608895785569224  4.281981163559895  -8.8770510016052  -157.76914281660675  4.518357116911112  -156.6572398018007  25.577251010570183  0.000000
0.068  0.000000  0.000000  0.000000  -29.2224893460023  -1.910959919677705  2.258675593285984  56.7993862654784  4.27506187878476  -8.971753014919612  -158.32709871702193  3.3176546676435708  -157.08879203458642  25.65439613910523  0.000000
0.10200000000000001  0.000000  0.000000  0.000000  -29.13898106012556  -2.0324505284844605  2.4983806924071374  57.01540784888807  4.139231237304539  -9.06809517265597  -160.8410657501308  1.9731865253197207  -155.77151401612926  25.69467487519896  0.000000
0.136  0.000000  0.000000  0.000000  -29.063215984069938  -2.110333845797978  2.798161004175897  57.27742892853303  3.9422102816550533  -9.13828272403748  177.91802938443385  0.5949954810658233  -135.81936519560645  25.73014115647814  0.000000
0.17  0.000000  0.000000  0.000000  -29.026936258159132  -2.1254090065562043  3.1352372969329982  57.57241343697258  3.7306289380765456  -9.144896024327487  45.791372428769094  1.0436187497285188  -5.024336840131145  25.75541329184863  0.000000
0.20400000000000001  0.000000  0.000000  0.000000  -29.00937650569657  -2.070863539496373  3.496031894861654  57.89146562499801  3.5302939379042604  -9.093037195246113  36.258234126029556  2.59299324496335  3.1297703094087734  25.7647571386875  0.000000
0.23800000000000002  0.000000  0.000000  0.000000  -29.024043131310997  -1.9580138463260752  3.872011941576429  58.25021976099618  3.362314349591309  -8.981648838048175  34.22542920440376  4.22467680080988  3.766581571486147  25.763799272255966  0.000000
0.272  0.000000  0.000000  0.000000  -29.049793778007388  -1.8023605492406152  4.253177974547913  58.63626587908439  3.241826751198672  -8.82039738888746  33.744290103034174  5.908029882303409  2.8296831538433698  25.750655069549914  0.000000
0.30600000000000005  0.000000  0.000000  0.000000  -29.08943204311153  -1.619610538963372  4.632196516836555  59.04635628344486  3.1836561916518664  -8.620500197944912  33.875556480618485  7.632895846598359  1.2712906429707593  25.72820288277522  0.000000
0.34  0.000000  0.000000  0.000000  -29.127125268820866  -1.4175412758125192  5.000784399796158  59.46281397206347  3.2044780165703446  -8.39751582533768  34.33197386051091  9.39013471424217  -0.6204733223046218  25.698397478237016  0.000000
0.374  0.000000  0.000000  0.000000  -29.15968988698781  -1.1970514136669588  5.36320187084197  59.88490553492772  3.3043920019695103  -8.16789396837717  34.955548526933775  11.181474694912138  -2.673883618191894  25.661608211274817  0.000000
0.40800000000000003  0.000000  0.000000  0.000000  -29.185912370263985  -0.959216114523898  5.728256950517372  60.30514356692509  3.4729108474007804  -7.936819154613547  35.65871475691893  13.002668322288471  -4.795516422890427  25.619465189385178  0.000000
0.44200000000000006  0.000000  0.000000  0.000000  -29.208641340690946  -0.7035679521749897  6.090908919232688  60.72491460818081  3.7027086869293226  -7.699277888218664  36.417557965862045  14.85202184954245  -6.964237727991945  25.56832463441736  0.000000
0.47600000000000003  0.000000  0.000000  0.000000  -29.23277068265495  -0.42912933102481843  6.447355408218527  61.138090813402655  3.9865223373802707  -7.449398994941072  37.21607197749771  16.723094569645777  -9.163615118733153  25.510946582012366  0.000000
0.51  0.000000  0.000000  0.000000  -29.26054025593067  -0.1356013701196904  6.794527652373447  61.5424772849635  4.316475896002801  -7.18678637818176  38.03623985169445  18.608383511724867  -11.370928566274976  25.446828550579205  0.000000
0.544  0.000000  0.000000  0.000000  -29.292345722397688  0.17305431474233393  7.131483769670413  61.933999619605345  4.686813354354206  -6.913595522057233  38.86392555025987  20.497165956582503  -13.566549210303425  25.37829802926123  0.000000
0.5780000000000001  0.000000  0.000000  0.000000  -29.32841479112007  0.4916830181719252  7.458188688001876  62.30874967978379  5.089107223252499  -6.634642584841141  39.69205839337874  22.382600330630844  -15.741450051945169  25.304166308656526  0.000000
0.6120000000000001  0.000000  0.000000  0.000000  -29.368094813132107  0.8148568209186411  7.775835365734675  62.66387981717141  5.515909252505394  -6.355417964674798  40.51826845840868  24.258180616535288  -17.889612604332946  25.225856668333567  0.000000
0.646  0.000000  0.000000  0.000000  -29.410542143367238  1.1386375116772471  8.08595037270895  62.99547227333475  5.958117549852328  -6.0804379700869005  41.339436280650304  26.119568758026364  -20.005705478036475  25.14314665088174  0.000000
0.68  0.000000  0.000000  0.000000  -29.45322406894284  1.46017441077147  8.388614273849436  63.300312170971324  6.409574503182092  -5.813685245741572  42.154553602075985  27.963048224081145  -22.08512956060467  25.057658051774858  0.000000
0.7140000000000001  0.000000  0.000000  0.000000  -29.492243872184858  1.777886103485802  8.679953342069256  63.57226306562361  6.866279627977945  -5.557013018234969  42.958948041154144  29.788078685695716  -24.120740516340955  24.9694896969917  0.000000
0.748  0.000000  0.000000  0.000000  -29.516252147054892  2.087422822766093  8.954016060704971  63.80358580290776  7.330176819024511  -5.316590703409124  43.74065673801849  31.595252021243134  -26.098424452237836  24.878356068581297  0.000000
0.782  0.000000  0.000000  0.000000  -29.517781981022853  2.3907811067946723  9.233273693547703  63.99003010662587  7.778369450998691  -5.102676882867746  44.48485104721773  33.38283909348868  -28.002564220090434  24.78655916821983  0.000000
0.8160000000000001  0.000000  0.000000  0.000000  -29.502618177487292  2.703591876862296  9.547789048117577  64.14076474989932  8.178330108396134  -4.90949858313211  45.19424320701839  35.14726752583546  -29.836289116117584  24.692387882100224  0.000000
0.8500000000000001  0.000000  0.000000  0.000000  -29.478022994698218  3.0401141040829116  9.90335547058208  64.26541730959656  8.525796514058266  -4.7184647351755045  45.87076013490169  36.88059844932532  -31.603890102844158  24.597172454234464  0.000000
0.8840000000000001  0.000000  0.000000  0.000000  -29.44888745251217  3.404071890385426  10.303340524791873  64.37412219034455  8.827625236016207  -4.519257798887912  46.50819961234321  38.57238792841305  -33.30271955710399  24.501424860625228  0.000000
0.918  0.000000  0.000000  0.000000  -29.441411864001175  3.7995231150056963  10.754199866061265  64.48312601274147  9.090056071948325  -4.2980438072481775  47.107535062668184  40.211139810363974  -34.934741651016374  24.40488980600997  0.000000
